<?xml version="1.0" encoding="UTF-8"?>
<svg version="1.1" xmlns="http://www.w3.org/2000/svg" width="203" height="203">
<path d="M0 0 C0.63502441 0.20898926 1.27004883 0.41797852 1.92431641 0.63330078 C28.62026986 9.60814285 48.15364308 29.39499566 61.25 53.8125 C67.56918489 67.3439907 69.83111372 80.02589704 69.65185547 94.86572266 C69.62500833 97.49918332 69.65178429 100.1283847 69.68359375 102.76171875 C69.7138159 117.14435487 67.06330694 130.49232245 60.25 143.3125 C59.91347412 143.9636377 59.57694824 144.61477539 59.23022461 145.28564453 C55.81080566 151.69695682 51.63768578 157.41242677 47 163 C46.30261719 163.86109375 45.60523438 164.7221875 44.88671875 165.609375 C28.75412383 184.60277743 4.26961296 197.20424861 -20.56835938 199.30126953 C-24.15562538 199.43517436 -27.72293004 199.46789147 -31.3125 199.4375 C-33.21153076 199.42614014 -33.21153076 199.42614014 -35.14892578 199.41455078 C-44.9694168 199.24239374 -53.71049865 198.14218117 -63 195 C-63.95253662 194.68651611 -63.95253662 194.68651611 -64.92431641 194.36669922 C-91.62026986 185.39185715 -111.15364308 165.60500434 -124.25 141.1875 C-135.1957622 118.53373588 -137.04523687 89.78482799 -129 66 C-128.68651611 65.04746338 -128.68651611 65.04746338 -128.36669922 64.07568359 C-119.39185715 37.37973014 -99.60500434 17.84635692 -75.1875 4.75 C-52.53373588 -6.1957622 -23.78482799 -8.04523687 0 0 Z " fill="#FCFCFC" transform="translate(133,4)"/>
<path d="M0 0 C2.95389576 1.79131831 5.9134098 3.57299882 8.875 5.3515625 C9.926875 6.16753906 9.926875 6.16753906 11 7 C11 10 11 10 9.28515625 11.75390625 C8.18494141 12.64916016 8.18494141 12.64916016 7.0625 13.5625 C4.07351045 15.91285524 4.07351045 15.91285524 2 19 C1.01 19 0.02 19 -1 19 C-1.0515625 18.27554688 -1.103125 17.55109375 -1.15625 16.8046875 C-1.79263925 11.0347674 -1.79263925 11.0347674 -4.5625 6.07421875 C-12.58373148 -0.18428243 -21.70984344 -2.764814 -31.75 -2.6875 C-33.18690186 -2.67988647 -33.18690186 -2.67988647 -34.65283203 -2.67211914 C-46.01028887 -2.30423921 -55.02911206 2.1511163 -63.26171875 10.06640625 C-69.49827866 17.00370323 -73.3185697 24.09155147 -76 33 C-76.36222656 33.98742187 -76.72445312 34.97484375 -77.09765625 35.9921875 C-78.69831286 41.64568511 -78.2075298 47.61914897 -78.125 53.4375 C-78.11597656 54.64599609 -78.10695313 55.85449219 -78.09765625 57.09960938 C-78.07420168 60.06661278 -78.04137794 63.03320143 -78 66 C-77.34 66 -76.68 66 -76 66 C-75.87625 66.58265625 -75.7525 67.1653125 -75.625 67.765625 C-72.4103618 80.54381185 -64.07994899 89.90795087 -54.3125 98.3125 C-43.69474866 103.72154314 -29.96301648 105.02757982 -18.41015625 102.0859375 C-7.18363779 98.02500317 0.49792316 92.19873182 8 83 C8.7109375 84.69921875 8.7109375 84.69921875 9 87 C3.7754754 96.12000347 -5.06034068 103.62051583 -15 107 C-15.99 107 -16.98 107 -18 107 C-18 107.66 -18 108.32 -18 109 C-20.99706695 109.86963087 -23.64956526 110.11763099 -26.765625 110.09765625 C-27.65507813 110.09443359 -28.54453125 110.09121094 -29.4609375 110.08789062 C-30.38132813 110.07951172 -31.30171875 110.07113281 -32.25 110.0625 C-33.18585937 110.05798828 -34.12171875 110.05347656 -35.0859375 110.04882812 C-37.39069041 110.03706918 -39.69531227 110.02063426 -42 110 C-42 109.34 -42 108.68 -42 108 C-43.299375 107.9175 -44.59875 107.835 -45.9375 107.75 C-54.75363516 106.74125726 -61.23911312 102.48063383 -68 97 C-69.010625 96.2575 -70.02125 95.515 -71.0625 94.75 C-78.84549178 88.0848905 -83.19392967 78.28539757 -87 69 C-87.37769531 68.12988281 -87.75539063 67.25976562 -88.14453125 66.36328125 C-91.73274678 52.2561873 -90.35049264 34.75006834 -83.3515625 21.99609375 C-74.25226337 7.07562726 -61.72427321 -3.40799667 -44.625 -7.875 C-29.34745863 -10.90870917 -12.81054304 -9.37043729 0 0 Z " fill="#2E3332" transform="translate(97,32)"/>
<path d="M0 0 C16.42504911 9.1773197 29.63287963 21.56249401 35.28344727 39.97973633 C38.86659685 53.4428824 38.09540471 67.08903128 31.7265625 79.5234375 C31.28054687 80.47476563 30.83453125 81.42609375 30.375 82.40625 C22.81625165 97.56597434 10.33299546 107.51505679 -5.2734375 113.5234375 C-19.45501506 118.2355992 -36.37551166 116.48415568 -49.5625 109.875 C-55.04041779 106.76223778 -60.23503407 103.30224008 -65.2734375 99.5234375 C-63.8346273 96.1362385 -62.05224251 94.1640271 -59.2734375 91.7734375 C-58.5721875 91.15984375 -57.8709375 90.54625 -57.1484375 89.9140625 C-55.2734375 88.5234375 -55.2734375 88.5234375 -53.2734375 88.5234375 C-52.9434375 91.4934375 -52.6134375 94.4634375 -52.2734375 97.5234375 C-51.2834375 97.8534375 -50.2934375 98.1834375 -49.2734375 98.5234375 C-48.5309375 99.4721875 -47.7884375 100.4209375 -47.0234375 101.3984375 C-42.85494523 106.61529309 -36.52923264 107.93993936 -30.2734375 109.5234375 C-15.80582251 110.96413291 -4.35519933 107.73277448 7.28515625 98.76953125 C11.20871451 95.15985765 13.93309449 91.02828838 16.7265625 86.5234375 C17.4484375 85.5953125 18.1703125 84.6671875 18.9140625 83.7109375 C26.16276664 70.96321642 26.48236523 55.85046655 24.06640625 41.640625 C20.1047222 27.40600264 11.92831531 16.15551114 -0.8359375 8.6484375 C-2.30230859 7.91398127 -3.78133249 7.20409363 -5.2734375 6.5234375 C-5.92183594 6.20503906 -6.57023437 5.88664062 -7.23828125 5.55859375 C-17.24308727 1.39152483 -30.53899169 2.2597381 -40.4921875 6.12890625 C-48.48421497 10.13614474 -54.8378899 15.47191629 -60.2734375 22.5234375 C-60.92578125 20.76171875 -60.92578125 20.76171875 -61.2734375 18.5234375 C-56.29028165 8.41117563 -46.35286454 2.46402125 -36.2734375 -1.4765625 C-26.16809101 -4.84501133 -9.76644521 -4.06214978 0 0 Z " fill="#2D3231" transform="translate(159.2734375,66.4765625)"/>
<path d="M0 0 C0.66 0 1.32 0 2 0 C2.10957031 0.61488281 2.21914062 1.22976562 2.33203125 1.86328125 C2.49058594 2.67152344 2.64914063 3.47976562 2.8125 4.3125 C2.96332031 5.11300781 3.11414063 5.91351563 3.26953125 6.73828125 C4.10794416 9.33422282 4.82092 10.37559491 7 12 C9.26393971 12.78356902 9.26393971 12.78356902 11.6875 13.1875 C12.49574219 13.34605469 13.30398437 13.50460938 14.13671875 13.66796875 C15.05904297 13.83232422 15.05904297 13.83232422 16 14 C13.40250066 16.28579942 11.82723073 17.03872415 8.375 17.8125 C4.76971022 18.63746942 4.76971022 18.63746942 3.625 21.8125 C3.41875 22.864375 3.2125 23.91625 3 25 C2.690625 26.423125 2.690625 26.423125 2.375 27.875 C2.25125 28.57625 2.1275 29.2775 2 30 C1.01 30 0.02 30 -1 30 C-1.10054687 29.24074219 -1.20109375 28.48148438 -1.3046875 27.69921875 C-1.90778252 24.51438136 -2.5403115 21.90220419 -4 19 C-6.63173827 17.53792318 -8.86460396 16.98316365 -11.8203125 16.46484375 C-12.53960937 16.31144531 -13.25890625 16.15804687 -14 16 C-14.33 15.34 -14.66 14.68 -15 14 C-14.39671875 13.89042969 -13.7934375 13.78085938 -13.171875 13.66796875 C-6.88407713 12.65052243 -6.88407713 12.65052243 -2 9 C-1.08695113 6.03391059 -0.48794518 3.06249805 0 0 Z " fill="#313534" transform="translate(62,67)"/>
<path d="M0 0 C2 3 2 3 2.9375 5.5 C6.27088635 9.54046831 11.02098188 9.960239 16 11 C15.67 11.66 15.34 12.32 15 13 C12.49487377 13.56567366 9.98910215 13.89362157 7.4453125 14.2421875 C3.66342277 15.41421084 2.58678207 17.88820239 0.8125 21.25 C0.544375 21.8275 0.27625 22.405 0 23 C-0.4125 22.071875 -0.825 21.14375 -1.25 20.1875 C-4.13769133 14.9277765 -7.35422994 13.66806843 -13 12 C-12.67 11.34 -12.34 10.68 -12 10 C-10.88625 9.71125 -9.7725 9.4225 -8.625 9.125 C-3.89289102 7.65641445 -3.02351405 5.93928978 -0.8125 1.75 C-0.544375 1.1725 -0.27625 0.595 0 0 Z " fill="#383D3C" transform="translate(144,112)"/>
<path d="M0 0 C0.66 0.33 1.32 0.66 2 1 C1.01 2.485 1.01 2.485 0 4 C0.33 4.66 0.66 5.32 1 6 C0.40832031 6.43570313 -0.18335937 6.87140625 -0.79296875 7.3203125 C-5.50848408 10.87425717 -9.43698017 14.28761893 -13 19 C-13.65234375 17.23828125 -13.65234375 17.23828125 -14 15 C-10.96171952 8.83445175 -5.23929697 4.25526657 0 0 Z " fill="#494D4C" transform="translate(112,70)"/>
<path d="M0 0 C0.33 0.99 0.66 1.98 1 3 C-0.328125 5.53125 -0.328125 5.53125 -2.25 8.5 C-5.72085727 14.18084424 -7.6577361 19.50599941 -9 26 C-9.33 26 -9.66 26 -10 26 C-11.02330546 17.43455428 -8.60406689 11.20177436 -4 4 C-1.796875 1.6484375 -1.796875 1.6484375 0 0 Z " fill="#EBEBEB" transform="translate(18,44)"/>
<path d="M0 0 C1.2578125 1.51953125 1.2578125 1.51953125 2 4 C0.7487116 6.78696054 -0.50871127 9.12918757 -2.125 11.6875 C-2.52976563 12.37650391 -2.93453125 13.06550781 -3.3515625 13.77539062 C-6.44633666 18.81927735 -6.44633666 18.81927735 -9.15185547 19.70239258 C-9.76174316 19.80060303 -10.37163086 19.89881348 -11 20 C-10.45730469 19.05898437 -9.91460937 18.11796875 -9.35546875 17.1484375 C-8.63272484 15.89067537 -7.91007352 14.63286003 -7.1875 13.375 C-6.83107422 12.75753906 -6.47464844 12.14007813 -6.10742188 11.50390625 C-3.94086828 7.72734494 -1.9095701 3.91552228 0 0 Z " fill="#D0D1D1" transform="translate(192,142)"/>
<path d="M0 0 C0.66 0 1.32 0 2 0 C0.61761648 3.10009769 -0.98578859 5.28263873 -3.375 7.6875 C-3.96023437 8.28949219 -4.54546875 8.89148438 -5.1484375 9.51171875 C-7.12608914 11.10135013 -8.5214179 11.5905426 -11 12 C-10.67 10.35 -10.34 8.7 -10 7 C-9.34 7.66 -8.68 8.32 -8 9 C-7.50628906 8.43410156 -7.01257813 7.86820312 -6.50390625 7.28515625 C-5.54291016 6.18494141 -5.54291016 6.18494141 -4.5625 5.0625 C-3.92441406 4.33160156 -3.28632812 3.60070312 -2.62890625 2.84765625 C-1.77458541 1.87860647 -0.91348825 0.91348825 0 0 Z " fill="#D2D3D3" transform="translate(107,79)"/>
<path d="M0 0 C1.32 1.32 2.64 2.64 4 4 C4.66 3.34 5.32 2.68 6 2 C5.67 4.97 5.34 7.94 5 11 C4.01 11 3.02 11 2 11 C1.34 7.37 0.68 3.74 0 0 Z " fill="#9B9D9D" transform="translate(59,86)"/>
<path d="M0 0 C0.33 1.32 0.66 2.64 1 4 C-1.30178819 6.81329667 -4.0515284 8.89394885 -7 11 C-7.66 10.67 -8.32 10.34 -9 10 C-6.03 6.7 -3.06 3.4 0 0 Z " fill="#6A6D6D" transform="translate(105,115)"/>
<path d="M0 0 C1 3 1 3 0.00390625 5.04296875 C-0.47175781 5.75066406 -0.94742187 6.45835938 -1.4375 7.1875 C-1.91058594 7.90292969 -2.38367188 8.61835937 -2.87109375 9.35546875 C-3.24363281 9.89816406 -3.61617187 10.44085938 -4 11 C-4.66 10.01 -5.32 9.02 -6 8 C-2.25 2.25 -2.25 2.25 0 0 Z " fill="#F1F1F1" transform="translate(18,44)"/>
<path d="M0 0 C0.99 0 1.98 0 3 0 C3 2.31 3 4.62 3 7 C2.34 6.34 1.68 5.68 1 5 C0.34 6.65 -0.32 8.3 -1 10 C-2.46726798 6.18510326 -1.43336419 3.70988378 0 0 Z " fill="#C5C6C6" transform="translate(143,108)"/>
<path d="M0 0 C0.66 1.32 1.32 2.64 2 4 C0.7260411 6.03833424 -0.61061923 8.03852126 -2 10 C-2.66 10 -3.32 10 -4 10 C-3.52449439 8.51965236 -3.04448784 7.04074979 -2.5625 5.5625 C-2.29566406 4.73878906 -2.02882812 3.91507813 -1.75390625 3.06640625 C-1 1 -1 1 0 0 Z " fill="#C5C7C6" transform="translate(192,142)"/>
<path d="M0 0 C0.66 0 1.32 0 2 0 C2.66 3.63 3.32 7.26 4 11 C3.34 10.67 2.68 10.34 2 10 C2 9.01 2 8.02 2 7 C1.01 7 0.02 7 -1 7 C-0.67 4.69 -0.34 2.38 0 0 Z " fill="#808382" transform="translate(62,67)"/>
<path d="M0 0 C0.66 0 1.32 0 2 0 C0.44499019 3.81684226 -2.03595495 6.19195732 -5 9 C-5.66 8.67 -6.32 8.34 -7 8 C-5.88200014 6.66079162 -4.75538103 5.32877444 -3.625 4 C-2.68527344 2.88625 -2.68527344 2.88625 -1.7265625 1.75 C-1.15679687 1.1725 -0.58703125 0.595 0 0 Z " fill="#C9CBCA" transform="translate(36,39)"/>
<path d="M0 0 C0.33 0.66 0.66 1.32 1 2 C-0.65 3.65 -2.3 5.3 -4 7 C-4 6.34 -4 5.68 -4 5 C-5.65 5.66 -7.3 6.32 -9 7 C-6.74012286 3.61018429 -5.66468831 3.37425812 -2 2 C-1.34 1.34 -0.68 0.68 0 0 Z " fill="#434847" transform="translate(101,122)"/>
<path d="M0 0 C0.33 0 0.66 0 1 0 C1 2.64 1 5.28 1 8 C0.01 8.33 -0.98 8.66 -2 9 C-2.25 3.375 -2.25 3.375 0 0 Z " fill="#B0B2B2" transform="translate(145,131)"/>
<path d="M0 0 C3.3125 -0.25 3.3125 -0.25 7 0 C8.9375 2 8.9375 2 10 4 C8.51882199 3.71872579 7.04006751 3.42466268 5.5625 3.125 C4.73878906 2.96257812 3.91507813 2.80015625 3.06640625 2.6328125 C2.38449219 2.42398438 1.70257813 2.21515625 1 2 C0.67 1.34 0.34 0.68 0 0 Z " fill="#8A8C8B" transform="translate(47,81)"/>
</svg>
